<svg width="256" height="256" viewBox="0 0 256 256" fill="none" xmlns="http://www.w3.org/2000/svg">
  <defs>
    <linearGradient id="bg" x1="30" y1="20" x2="214" y2="228" gradientUnits="userSpaceOnUse">
      <stop stop-color="#0F766E"/>
      <stop offset="1" stop-color="#1D4ED8"/>
    </linearGradient>
    <linearGradient id="accent" x1="116" y1="82" x2="166" y2="160" gradientUnits="userSpaceOnUse">
      <stop stop-color="#F59E0B"/>
      <stop offset="1" stop-color="#EA580C"/>
    </linearGradient>
  </defs>
  <rect x="24" y="24" width="208" height="208" rx="56" fill="url(#bg)"/>
  <path d="M72 94C72 82.9543 80.9543 74 92 74H164C175.046 74 184 82.9543 184 94V158C184 169.046 175.046 178 164 178H92C80.9543 178 72 169.046 72 158V94Z" fill="white" fill-opacity="0.96"/>
  <path d="M80 92L128 130L176 92" stroke="#0F172A" stroke-width="10" stroke-linecap="round" stroke-linejoin="round"/>
  <path d="M124 122L184 82L161 144L140 133L124 122Z" fill="url(#accent)"/>
  <path d="M114 149L140 133" stroke="#F8FAFC" stroke-width="7" stroke-linecap="round"/>
</svg>
