<svg width="512" height="512" viewBox="0 0 512 512" fill="none" xmlns="http://www.w3.org/2000/svg">
  <defs>
    <linearGradient id="bg" x1="76" y1="60" x2="430" y2="454" gradientUnits="userSpaceOnUse">
      <stop stop-color="#0F766E"/>
      <stop offset="1" stop-color="#1D4ED8"/>
    </linearGradient>
    <linearGradient id="accent" x1="234" y1="180" x2="316" y2="302" gradientUnits="userSpaceOnUse">
      <stop stop-color="#F59E0B"/>
      <stop offset="1" stop-color="#EA580C"/>
    </linearGradient>
  </defs>
  <rect x="56" y="56" width="400" height="400" rx="120" fill="url(#bg)"/>
  <path d="M148 198C148 178.118 164.118 162 184 162H328C347.882 162 364 178.118 364 198V314C364 333.882 347.882 350 328 350H184C164.118 350 148 333.882 148 314V198Z" fill="white" fill-opacity="0.96"/>
  <path d="M164 194L256 268L348 194" stroke="#0F172A" stroke-width="18" stroke-linecap="round" stroke-linejoin="round"/>
  <path d="M248 254L364 178L320 298L278 278L248 254Z" fill="url(#accent)"/>
  <path d="M228 310L278 278" stroke="#F8FAFC" stroke-width="12" stroke-linecap="round"/>
</svg>
