<svg xmlns="http://www.w3.org/2000/svg" width="512" height="208" viewBox="0 0 512 208" fill="none">
  <rect width="512" height="208" rx="32" fill="#191919"/>
  <g fill="#FFE347">
    <path d="M73.4 145.8c-17.6 0-31.7-5.1-42.3-15.4C20.4 120 15 106.8 15 90.8c0-16.7 5.3-30.1 15.8-40.2C41.5 40.2 55.4 35 72.7 35c16.6 0 30 4.8 40.3 14.4 10.4 9.5 15.6 22 15.6 37.4 0 3.7-.3 7.7-.9 12H54.1c1.5 6.7 5 12 10.6 15.9 5.7 3.9 12.6 5.9 20.8 5.9 11.3 0 21.9-3.6 31.8-10.8l14.5 21c-15.4 10-34.9 15-58.4 15Zm19.5-69.7c-.3-5.9-2.4-10.6-6.3-14.1-3.8-3.6-8.8-5.4-14.9-5.4-6.5 0-12 1.8-16.3 5.5-4.3 3.6-7 8.3-8.2 14H92.9Z"/>
    <path d="M206.8 145.8c-11.9 0-23.2-1.7-33.7-5.1-10.6-3.5-19.3-8.3-26.1-14.4l15.2-24.2c6.6 5.5 14.1 9.8 22.5 12.9 8.4 3 16.4 4.5 24 4.5 12.1 0 18.2-2.8 18.2-8.5 0-3-1.8-5.2-5.4-6.7-3.5-1.4-9.1-2.8-16.7-4.1l-13.7-2.1c-30.2-4.8-45.3-18.7-45.3-41.7 0-13.2 5.5-23.7 16.4-31.5 10.9-7.8 25.4-11.7 43.3-11.7 9.9 0 19.7 1.4 29.4 4.1 9.8 2.6 18 6.3 24.6 11L244.9 51c-12.1-7.3-25.2-10.9-39.4-10.9-5.5 0-9.8.7-12.8 2.2-3 1.5-4.6 3.7-4.6 6.6 0 3 1.5 5.3 4.5 6.8 3 1.5 8.1 2.8 15.5 3.9l13.6 2.1c17.1 2.6 29.4 7.4 37 14.4 7.7 6.9 11.5 16.4 11.5 28.5 0 13.6-5.7 24.2-17.1 31.8-11.3 7.6-27.2 11.4-47.8 11.4Z"/>
    <path d="M367.8 145.8c-13.6 0-24.5-3.7-32.8-11.1-8.2-7.4-12.3-17.6-12.3-30.6V62.8H296V36.4h26.7V5.7h34.7v30.7h41.4v26.4h-41.4v35.7c0 10.2 5.2 15.3 15.6 15.3 7.2 0 14.2-2 21-6.1l9.8 24.4c-10.6 9-22.6 13.5-36 13.5Z"/>
    <path d="M421.9 24h45v27.4h-15.1v75.2h15.1V154h-45v-27.4H437V51.4h-15.1V24Z"/>
    <rect x="446" y="5" width="39" height="32" rx="3" fill="#FFE347"/>
  </g>
</svg>
