<svg width="1369" height="515" viewBox="0 0 1369 515" fill="none" xmlns="http://www.w3.org/2000/svg">
  <rect width="1369" height="515" fill="white"/>

  <!-- Sphinx head -->
  <path d="M26 250C20 168 54 110 122 86C196 60 291 76 355 140" stroke="#253A92" stroke-width="9" stroke-linecap="round"/>
  <path d="M22 258C20 351 80 438 170 468" stroke="#253A92" stroke-width="9" stroke-linecap="round"/>
  <path d="M175 97C213 112 247 146 263 197" stroke="#253A92" stroke-width="8" stroke-linecap="round"/>
  <path d="M136 171C157 146 195 134 227 154" stroke="#253A92" stroke-width="7" stroke-linecap="round"/>
  <circle cx="237" cy="165" r="7" fill="#253A92"/>
  <path d="M211 207C252 225 294 211 325 178" stroke="#253A92" stroke-width="8" stroke-linecap="round"/>
  <path d="M214 236C270 252 302 236 326 214" stroke="#253A92" stroke-width="7" stroke-linecap="round"/>
  <path d="M160 287C227 277 278 300 314 342" stroke="#253A92" stroke-width="8" stroke-linecap="round"/>
  <path d="M294 342C304 400 303 444 292 486" stroke="#253A92" stroke-width="8" stroke-linecap="round"/>

  <!-- Wordmark -->
  <text x="365" y="265" fill="#253A92" font-size="240" font-family="Segoe UI, Arial, sans-serif" letter-spacing="5">SPHINX</text>

  <line x1="373" y1="338" x2="1329" y2="338" stroke="#253A92" stroke-width="14"/>
  <line x1="373" y1="365" x2="1329" y2="365" stroke="#D57A42" stroke-width="6"/>

  <text x="802" y="487" fill="#253A92" font-size="122" font-style="italic" font-family="Georgia, 'Times New Roman', serif">Since 1944</text>
</svg>
