<svg width="640" height="180" viewBox="0 0 640 180" fill="none" xmlns="http://www.w3.org/2000/svg">
  <defs>
    <linearGradient id="bg" x1="36" y1="24" x2="156" y2="156" gradientUnits="userSpaceOnUse">
      <stop stop-color="#0F766E"/>
      <stop offset="1" stop-color="#1D4ED8"/>
    </linearGradient>
    <linearGradient id="accent" x1="80" y1="54" x2="118" y2="115" gradientUnits="userSpaceOnUse">
      <stop stop-color="#F59E0B"/>
      <stop offset="1" stop-color="#EA580C"/>
    </linearGradient>
  </defs>
  <rect x="24" y="18" width="132" height="132" rx="36" fill="url(#bg)"/>
  <path d="M55 63C55 55.8203 60.8203 50 68 50H112C119.18 50 125 55.8203 125 63V105C125 112.18 119.18 118 112 118H68C60.8203 118 55 112.18 55 105V63Z" fill="white" fill-opacity="0.96"/>
  <path d="M60.5 60.5L89.5 84L119.5 60.5" stroke="#0F172A" stroke-width="6" stroke-linecap="round" stroke-linejoin="round"/>
  <path d="M88 80L126.5 55.5L112 96L97 88.5L88 80Z" fill="url(#accent)"/>
  <path d="M82 93L97.5 88.5" stroke="#F8FAFC" stroke-width="4" stroke-linecap="round"/>
  <text x="190" y="82" fill="#0F172A" font-family="'Segoe UI', Arial, sans-serif" font-size="52" font-weight="800" letter-spacing="1">Emails EST</text>
  <text x="190" y="118" fill="#475569" font-family="'Segoe UI', Arial, sans-serif" font-size="24" font-weight="500">Email delivery workspace</text>
</svg>
