<svg width="180" height="180" viewBox="0 0 180 180" fill="none" xmlns="http://www.w3.org/2000/svg">
  <defs>
    <linearGradient id="bg" x1="24" y1="18" x2="152" y2="158" gradientUnits="userSpaceOnUse">
      <stop stop-color="#0F766E"/>
      <stop offset="1" stop-color="#1D4ED8"/>
    </linearGradient>
    <linearGradient id="accent" x1="84" y1="58" x2="126" y2="122" gradientUnits="userSpaceOnUse">
      <stop stop-color="#F59E0B"/>
      <stop offset="1" stop-color="#EA580C"/>
    </linearGradient>
  </defs>
  <rect x="20" y="16" width="140" height="140" rx="38" fill="url(#bg)"/>
  <path d="M52 66C52 58.268 58.268 52 66 52H114C121.732 52 128 58.268 128 66V110C128 117.732 121.732 124 114 124H66C58.268 124 52 117.732 52 110V66Z" fill="white" fill-opacity="0.96"/>
  <path d="M58 64L90 90L122 64" stroke="#0F172A" stroke-width="6" stroke-linecap="round" stroke-linejoin="round"/>
  <path d="M88 84L129 58L113 100L98 92L88 84Z" fill="url(#accent)"/>
  <path d="M82 97L98 92" stroke="#F8FAFC" stroke-width="4" stroke-linecap="round"/>
</svg>
